<svg xmlns="http://www.w3.org/2000/svg" viewBox="0 0 900 574" width="900" height="574">
<style>
text{font-family:-apple-system,Segoe UI,Helvetica,Arial,sans-serif;fill:#1b1f24}
.ttl{font-size:13px;font-weight:600}
.tick{font-size:10px;fill:#57606a}
.gl{stroke:#e8ebef;stroke-width:1}
.hl{stroke:#d1226b;stroke-width:1;opacity:.7}
</style>
<rect x="0" y="0" width="900" height="574" fill="#ffffff"/>
<text x="50" y="16" style="font-size:15px;font-weight:700">Yesterday's scorecard</text>
<g transform="translate(0,26)"><g transform="translate(0,0)">
<text x="50" y="14" class="ttl">SoC: real vs scored (achieved) vs oracle (%)</text>
<line x1="50" x2="880" y1="214.0" y2="214.0" class="gl"/>
<text x="44" y="218.0" text-anchor="end" class="tick">0</text>
<line x1="50" x2="880" y1="166.5" y2="166.5" class="gl"/>
<text x="44" y="170.5" text-anchor="end" class="tick">25</text>
<line x1="50" x2="880" y1="119.0" y2="119.0" class="gl"/>
<text x="44" y="123.0" text-anchor="end" class="tick">50</text>
<line x1="50" x2="880" y1="71.5" y2="71.5" class="gl"/>
<text x="44" y="75.5" text-anchor="end" class="tick">75</text>
<line x1="50" x2="880" y1="24.0" y2="24.0" class="gl"/>
<text x="44" y="28.0" text-anchor="end" class="tick">100</text>
<path d="M 50.0 149.0 L 86.1 156.8 L 122.2 160.4 L 158.3 160.4 L 194.3 165.7 L 230.4 171.1 L 266.5 173.2 L 302.6 180.4 L 338.7 189.7 L 374.8 184.5 L 410.9 189.5 L 447.0 176.9 L 483.0 129.6 L 519.1 97.0 L 555.2 56.9 L 591.3 69.0 L 627.4 43.9 L 663.5 83.7 L 699.6 112.9 L 735.7 131.2 L 771.7 165.4 L 807.8 180.4 L 843.9 182.7 L 880.0 183.8" fill="none" stroke="#1b1f24" stroke-width="2" stroke-linejoin="round"/>
<path d="M 50.0 150.0 L 86.1 156.2 L 122.2 157.4 L 158.3 160.0 L 194.3 163.5 L 230.4 167.1 L 266.5 168.8 L 302.6 175.8 L 338.7 179.8 L 374.8 174.1 L 410.9 177.7 L 447.0 145.6 L 483.0 89.9 L 519.1 37.3 L 555.2 -2.0 L 591.3 -12.3 L 627.4 6.7 L 663.5 66.6 L 699.6 111.4 L 735.7 149.0 L 771.7 200.5 L 807.8 216.3 L 843.9 219.3 L 880.0 220.5" fill="none" stroke="#0969da" stroke-width="2" stroke-linejoin="round"/>
<path d="M 50.0 149.2 L 86.1 151.1 L 122.2 153.0 L 158.3 155.1 L 194.3 157.2 L 230.4 159.3 L 266.5 160.8 L 302.6 166.5 L 338.7 165.6 L 374.8 160.0 L 410.9 158.3 L 447.0 146.0 L 483.0 122.6 L 519.1 109.1 L 555.2 65.6 L 591.3 24.0 L 627.4 24.0 L 663.5 40.1 L 699.6 98.7 L 735.7 115.8 L 771.7 142.0 L 807.8 187.2 L 843.9 203.5 L 880.0 204.3" fill="none" stroke="#8250df" stroke-width="2" stroke-linejoin="round"/>
<text x="50.0" y="228" text-anchor="middle" class="tick">00:00</text>
<text x="158.3" y="228" text-anchor="middle" class="tick">03:00</text>
<text x="266.5" y="228" text-anchor="middle" class="tick">06:00</text>
<text x="374.8" y="228" text-anchor="middle" class="tick">09:00</text>
<text x="483.0" y="228" text-anchor="middle" class="tick">12:00</text>
<text x="591.3" y="228" text-anchor="middle" class="tick">15:00</text>
<text x="699.6" y="228" text-anchor="middle" class="tick">18:00</text>
<text x="807.8" y="228" text-anchor="middle" class="tick">21:00</text>
<rect x="50" y="244" width="10" height="10" fill="#1b1f24"/>
<text x="64" y="253" class="tick">real</text>
<rect x="102.8" y="244" width="10" height="10" fill="#0969da"/>
<text x="116.8" y="253" class="tick">achieved</text>
<rect x="180.39999999999998" y="244" width="10" height="10" fill="#8250df"/>
<text x="194.39999999999998" y="253" class="tick">oracle</text>
</g></g>
<g transform="translate(0,300)"><g transform="translate(0,0)">
<text x="50" y="14" class="ttl">Hourly regret ($, achieved-oracle; negative = oracle spent to earn later)</text>
<line x1="50" x2="880" y1="214.0" y2="214.0" class="gl"/>
<text x="44" y="218.0" text-anchor="end" class="tick">-2</text>
<line x1="50" x2="880" y1="166.5" y2="166.5" class="gl"/>
<text x="44" y="170.5" text-anchor="end" class="tick">-1</text>
<line x1="50" x2="880" y1="119.0" y2="119.0" class="gl"/>
<text x="44" y="123.0" text-anchor="end" class="tick">1</text>
<line x1="50" x2="880" y1="71.5" y2="71.5" class="gl"/>
<text x="44" y="75.5" text-anchor="end" class="tick">2</text>
<line x1="50" x2="880" y1="24.0" y2="24.0" class="gl"/>
<text x="44" y="28.0" text-anchor="end" class="tick">3</text>
<line x1="50" x2="880" y1="147.2" y2="147.2" class="hl" stroke-dasharray="2,2"/>
<rect x="39.6" y="146.8" width="20.8" height="0.5" fill="#c0392b"/>
<rect x="75.7" y="147.2" width="20.8" height="0.9" fill="#1a7f37"/>
<rect x="111.8" y="139.0" width="20.8" height="8.2" fill="#c0392b"/>
<rect x="147.9" y="146.8" width="20.8" height="0.5" fill="#c0392b"/>
<rect x="184.0" y="141.1" width="20.8" height="6.1" fill="#c0392b"/>
<rect x="220.1" y="144.6" width="20.8" height="2.6" fill="#c0392b"/>
<rect x="256.1" y="146.8" width="20.8" height="0.5" fill="#c0392b"/>
<rect x="292.2" y="146.9" width="20.8" height="0.5" fill="#c0392b"/>
<rect x="328.3" y="147.2" width="20.8" height="2.1" fill="#1a7f37"/>
<rect x="364.4" y="142.1" width="20.8" height="5.1" fill="#c0392b"/>
<rect x="400.5" y="142.2" width="20.8" height="5.0" fill="#c0392b"/>
<rect x="436.6" y="88.8" width="20.8" height="58.5" fill="#c0392b"/>
<rect x="472.7" y="88.7" width="20.8" height="58.5" fill="#c0392b"/>
<rect x="508.8" y="75.2" width="20.8" height="72.0" fill="#c0392b"/>
<rect x="544.8" y="147.1" width="20.8" height="0.5" fill="#c0392b"/>
<rect x="580.9" y="147.2" width="20.8" height="15.8" fill="#1a7f37"/>
<rect x="617.0" y="147.2" width="20.8" height="23.4" fill="#1a7f37"/>
<rect x="653.1" y="147.2" width="20.8" height="19.3" fill="#1a7f37"/>
<rect x="689.2" y="80.0" width="20.8" height="67.2" fill="#c0392b"/>
<rect x="725.3" y="147.2" width="20.8" height="53.7" fill="#1a7f37"/>
<rect x="761.4" y="147.2" width="20.8" height="12.9" fill="#1a7f37"/>
<rect x="797.5" y="37.1" width="20.8" height="110.1" fill="#c0392b"/>
<rect x="833.5" y="147.2" width="20.8" height="0.5" fill="#c0392b"/>
<rect x="869.6" y="147.0" width="20.8" height="0.5" fill="#c0392b"/>
<text x="50.0" y="228" text-anchor="middle" class="tick">00:00</text>
<text x="158.3" y="228" text-anchor="middle" class="tick">03:00</text>
<text x="266.5" y="228" text-anchor="middle" class="tick">06:00</text>
<text x="374.8" y="228" text-anchor="middle" class="tick">09:00</text>
<text x="483.0" y="228" text-anchor="middle" class="tick">12:00</text>
<text x="591.3" y="228" text-anchor="middle" class="tick">15:00</text>
<text x="699.6" y="228" text-anchor="middle" class="tick">18:00</text>
<text x="807.8" y="228" text-anchor="middle" class="tick">21:00</text>
<rect x="50" y="244" width="10" height="10" fill="#c0392b"/>
<text x="64" y="253" class="tick">regret</text>
</g></g>
</svg>