<svg xmlns="http://www.w3.org/2000/svg" viewBox="0 0 900 848" width="900" height="848">
<style>
text{font-family:-apple-system,Segoe UI,Helvetica,Arial,sans-serif;fill:#1b1f24}
.ttl{font-size:13px;font-weight:600}
.tick{font-size:10px;fill:#57606a}
.gl{stroke:#e8ebef;stroke-width:1}
.hl{stroke:#d1226b;stroke-width:1;opacity:.7}
</style>
<rect x="0" y="0" width="900" height="848" fill="#ffffff"/>
<text x="50" y="16" style="font-size:15px;font-weight:700">Nimbus day-ahead plan (next 24h)</text>
<g transform="translate(0,26)"><g transform="translate(0,0)">
<text x="50" y="14" class="ttl">Price (c/kWh)</text>
<line x1="50" x2="880" y1="214.0" y2="214.0" class="gl"/>
<text x="44" y="218.0" text-anchor="end" class="tick">-3</text>
<line x1="50" x2="880" y1="166.5" y2="166.5" class="gl"/>
<text x="44" y="170.5" text-anchor="end" class="tick">7</text>
<line x1="50" x2="880" y1="119.0" y2="119.0" class="gl"/>
<text x="44" y="123.0" text-anchor="end" class="tick">17</text>
<line x1="50" x2="880" y1="71.5" y2="71.5" class="gl"/>
<text x="44" y="75.5" text-anchor="end" class="tick">26</text>
<line x1="50" x2="880" y1="24.0" y2="24.0" class="gl"/>
<text x="44" y="28.0" text-anchor="end" class="tick">36</text>
<path d="M 50.0 116.3 L 84.6 137.3 L 119.2 148.1 L 153.8 152.0 L 188.3 154.0 L 222.9 184.8 L 257.5 184.8 L 292.1 184.3 L 326.7 181.8 L 361.2 167.6 L 395.8 43.9 L 430.4 37.1 L 465.0 38.6 L 499.6 40.0 L 534.2 41.5 L 568.8 114.8 L 603.3 116.8 L 637.9 119.7 L 672.5 121.2 L 707.1 122.7 L 741.7 123.6 L 776.2 123.6 L 810.8 110.9 L 845.4 102.1 L 880.0 94.8" fill="none" stroke="#c0392b" stroke-width="2" stroke-linejoin="round"/>
<path d="M 50.0 166.2 L 84.6 185.3 L 119.2 195.0 L 153.8 198.9 L 188.3 200.4 L 222.9 200.9 L 257.5 200.9 L 292.1 200.4 L 326.7 198.0 L 361.2 185.3 L 395.8 166.2 L 430.4 160.3 L 465.0 161.3 L 499.6 162.8 L 534.2 163.7 L 568.8 165.2 L 603.3 166.7 L 637.9 169.1 L 672.5 171.1 L 707.1 172.0 L 741.7 173.0 L 776.2 173.0 L 810.8 168.6 L 845.4 161.3 L 880.0 155.4" fill="none" stroke="#1a7f37" stroke-width="2" stroke-linejoin="round"/>
<text x="50.0" y="228" text-anchor="middle" class="tick">Wed 06:00</text>
<text x="153.8" y="228" text-anchor="middle" class="tick">Wed 09:00</text>
<text x="257.5" y="228" text-anchor="middle" class="tick">Wed 12:00</text>
<text x="361.2" y="228" text-anchor="middle" class="tick">Wed 15:00</text>
<text x="465.0" y="228" text-anchor="middle" class="tick">Wed 18:00</text>
<text x="568.8" y="228" text-anchor="middle" class="tick">Wed 21:00</text>
<text x="672.5" y="228" text-anchor="middle" class="tick">Thu 00:00</text>
<text x="776.2" y="228" text-anchor="middle" class="tick">Thu 03:00</text>
<text x="880.0" y="228" text-anchor="middle" class="tick">Thu 06:00</text>
<rect x="50" y="244" width="10" height="10" fill="#c0392b"/>
<text x="64" y="253" class="tick">import</text>
<rect x="115.2" y="244" width="10" height="10" fill="#1a7f37"/>
<text x="129.2" y="253" class="tick">export</text>
</g></g>
<g transform="translate(0,300)"><g transform="translate(0,0)">
<text x="50" y="14" class="ttl">Power (kW, +discharge/import)</text>
<line x1="50" x2="880" y1="214.0" y2="214.0" class="gl"/>
<text x="44" y="218.0" text-anchor="end" class="tick">-37</text>
<line x1="50" x2="880" y1="166.5" y2="166.5" class="gl"/>
<text x="44" y="170.5" text-anchor="end" class="tick">-20</text>
<line x1="50" x2="880" y1="119.0" y2="119.0" class="gl"/>
<text x="44" y="123.0" text-anchor="end" class="tick">-4</text>
<line x1="50" x2="880" y1="71.5" y2="71.5" class="gl"/>
<text x="44" y="75.5" text-anchor="end" class="tick">12</text>
<line x1="50" x2="880" y1="24.0" y2="24.0" class="gl"/>
<text x="44" y="28.0" text-anchor="end" class="tick">29</text>
<path d="M 50.0 105.3 L 84.6 98.3 L 119.2 87.1 L 153.8 77.3 L 188.3 70.9 L 222.9 67.7 L 257.5 67.4 L 292.1 70.6 L 326.7 78.1 L 361.2 85.9 L 395.8 97.2 L 430.4 106.1 L 465.0 107.6 L 499.6 107.6 L 534.2 107.6 L 568.8 107.6 L 603.3 107.6 L 637.9 107.6 L 672.5 107.6 L 707.1 107.6 L 741.7 107.6 L 776.2 107.6 L 810.8 107.6 L 845.4 107.6 L 880.0 107.3" fill="none" stroke="#d19a00" stroke-width="2" stroke-linejoin="round"/>
<path d="M 50.0 104.1 L 84.6 100.7 L 119.2 98.3 L 153.8 97.5 L 188.3 95.7 L 222.9 93.1 L 257.5 91.7 L 292.1 92.0 L 326.7 92.3 L 361.2 94.6 L 395.8 99.8 L 430.4 102.7 L 465.0 102.1 L 499.6 101.2 L 534.2 100.9 L 568.8 101.5 L 603.3 102.7 L 637.9 103.5 L 672.5 103.8 L 707.1 104.1 L 741.7 104.1 L 776.2 103.8 L 810.8 103.5 L 845.4 103.3 L 880.0 105.3" fill="none" stroke="#57606a" stroke-width="2" stroke-linejoin="round"/>
<path d="M 50.0 107.6 L 84.6 107.6 L 119.2 107.6 L 153.8 107.6 L 188.3 107.6 L 222.9 38.3 L 257.5 37.1 L 292.1 37.1 L 326.7 107.6 L 361.2 107.6 L 395.8 107.6 L 430.4 107.6 L 465.0 107.6 L 499.6 107.6 L 534.2 107.6 L 568.8 107.6 L 603.3 107.6 L 637.9 107.6 L 672.5 107.6 L 707.1 107.6 L 741.7 107.6 L 776.2 107.6 L 810.8 107.6 L 845.4 107.6 L 880.0 107.6" fill="none" stroke="#8250df" stroke-width="2" stroke-linejoin="round"/>
<rect x="40.0" y="84.2" width="19.9" height="23.4" fill="#1a7f37"/>
<rect x="74.6" y="107.6" width="19.9" height="1.7" fill="#c0392b"/>
<rect x="109.2" y="107.6" width="19.9" height="10.7" fill="#c0392b"/>
<rect x="143.8" y="107.6" width="19.9" height="19.4" fill="#c0392b"/>
<rect x="178.4" y="107.6" width="19.9" height="23.4" fill="#c0392b"/>
<rect x="213.0" y="107.6" width="19.9" height="93.3" fill="#c0392b"/>
<rect x="247.5" y="107.6" width="19.9" height="93.0" fill="#c0392b"/>
<rect x="282.1" y="107.6" width="19.9" height="90.1" fill="#c0392b"/>
<rect x="316.7" y="107.6" width="19.9" height="12.7" fill="#c0392b"/>
<rect x="351.3" y="107.6" width="19.9" height="6.6" fill="#c0392b"/>
<rect x="385.9" y="107.6" width="19.9" height="0.5" fill="#1a7f37"/>
<rect x="420.5" y="101.2" width="19.9" height="6.4" fill="#1a7f37"/>
<rect x="455.0" y="99.8" width="19.9" height="7.8" fill="#1a7f37"/>
<rect x="489.6" y="99.8" width="19.9" height="7.8" fill="#1a7f37"/>
<rect x="524.2" y="100.1" width="19.9" height="7.5" fill="#1a7f37"/>
<rect x="558.8" y="100.7" width="19.9" height="6.9" fill="#1a7f37"/>
<rect x="593.4" y="101.8" width="19.9" height="5.8" fill="#1a7f37"/>
<rect x="628.0" y="102.7" width="19.9" height="4.9" fill="#1a7f37"/>
<rect x="662.5" y="103.0" width="19.9" height="4.6" fill="#1a7f37"/>
<rect x="697.1" y="103.0" width="19.9" height="4.6" fill="#1a7f37"/>
<rect x="731.7" y="103.0" width="19.9" height="4.6" fill="#1a7f37"/>
<rect x="766.3" y="102.7" width="19.9" height="4.9" fill="#1a7f37"/>
<rect x="800.9" y="102.4" width="19.9" height="5.2" fill="#1a7f37"/>
<rect x="835.5" y="92.0" width="19.9" height="15.6" fill="#1a7f37"/>
<rect x="870.0" y="99.8" width="19.9" height="7.8" fill="#1a7f37"/>
<text x="50.0" y="228" text-anchor="middle" class="tick">Wed 06:00</text>
<text x="153.8" y="228" text-anchor="middle" class="tick">Wed 09:00</text>
<text x="257.5" y="228" text-anchor="middle" class="tick">Wed 12:00</text>
<text x="361.2" y="228" text-anchor="middle" class="tick">Wed 15:00</text>
<text x="465.0" y="228" text-anchor="middle" class="tick">Wed 18:00</text>
<text x="568.8" y="228" text-anchor="middle" class="tick">Wed 21:00</text>
<text x="672.5" y="228" text-anchor="middle" class="tick">Thu 00:00</text>
<text x="776.2" y="228" text-anchor="middle" class="tick">Thu 03:00</text>
<text x="880.0" y="228" text-anchor="middle" class="tick">Thu 06:00</text>
<rect x="50" y="244" width="10" height="10" fill="#d19a00"/>
<text x="64" y="253" class="tick">solar</text>
<rect x="109.0" y="244" width="10" height="10" fill="#57606a"/>
<text x="123.0" y="253" class="tick">load</text>
<rect x="161.8" y="244" width="10" height="10" fill="#8250df"/>
<text x="175.8" y="253" class="tick">grid_import</text>
<rect x="258.0" y="244" width="10" height="10" fill="#1a7f37"/>
<text x="272.0" y="253" class="tick">battery</text>
</g></g>
<g transform="translate(0,574)"><g transform="translate(0,0)">
<text x="50" y="14" class="ttl">SoC (%)</text>
<line x1="50" x2="880" y1="214.0" y2="214.0" class="gl"/>
<text x="44" y="218.0" text-anchor="end" class="tick">0</text>
<line x1="50" x2="880" y1="166.5" y2="166.5" class="gl"/>
<text x="44" y="170.5" text-anchor="end" class="tick">25</text>
<line x1="50" x2="880" y1="119.0" y2="119.0" class="gl"/>
<text x="44" y="123.0" text-anchor="end" class="tick">50</text>
<line x1="50" x2="880" y1="71.5" y2="71.5" class="gl"/>
<text x="44" y="75.5" text-anchor="end" class="tick">75</text>
<line x1="50" x2="880" y1="24.0" y2="24.0" class="gl"/>
<text x="44" y="28.0" text-anchor="end" class="tick">100</text>
<line x1="50" x2="880" y1="204.5" y2="204.5" class="hl" stroke-dasharray="4,3"/>
<path d="M 50.0 214.0 L 50.0 167.6 L 84.6 167.1 L 119.2 162.9 L 153.8 155.1 L 188.3 145.8 L 222.9 108.5 L 257.5 71.1 L 292.1 35.2 L 326.7 30.1 L 361.2 27.6 L 395.8 27.6 L 430.4 30.3 L 465.0 33.5 L 499.6 36.9 L 534.2 40.0 L 568.8 43.0 L 603.3 45.3 L 637.9 47.6 L 672.5 49.5 L 707.1 51.4 L 741.7 53.3 L 776.2 55.4 L 810.8 57.4 L 845.4 63.9 L 880.0 67.3 L 880.0 214.0 Z" fill="#0969da" opacity="0.28"/>
<path d="M 50.0 167.6 L 84.6 167.1 L 119.2 162.9 L 153.8 155.1 L 188.3 145.8 L 222.9 108.5 L 257.5 71.1 L 292.1 35.2 L 326.7 30.1 L 361.2 27.6 L 395.8 27.6 L 430.4 30.3 L 465.0 33.5 L 499.6 36.9 L 534.2 40.0 L 568.8 43.0 L 603.3 45.3 L 637.9 47.6 L 672.5 49.5 L 707.1 51.4 L 741.7 53.3 L 776.2 55.4 L 810.8 57.4 L 845.4 63.9 L 880.0 67.3" fill="none" stroke="#0969da" stroke-width="2" stroke-linejoin="round"/>
<text x="50.0" y="228" text-anchor="middle" class="tick">Wed 06:00</text>
<text x="153.8" y="228" text-anchor="middle" class="tick">Wed 09:00</text>
<text x="257.5" y="228" text-anchor="middle" class="tick">Wed 12:00</text>
<text x="361.2" y="228" text-anchor="middle" class="tick">Wed 15:00</text>
<text x="465.0" y="228" text-anchor="middle" class="tick">Wed 18:00</text>
<text x="568.8" y="228" text-anchor="middle" class="tick">Wed 21:00</text>
<text x="672.5" y="228" text-anchor="middle" class="tick">Thu 00:00</text>
<text x="776.2" y="228" text-anchor="middle" class="tick">Thu 03:00</text>
<text x="880.0" y="228" text-anchor="middle" class="tick">Thu 06:00</text>
<rect x="50" y="244" width="10" height="10" fill="#0969da"/>
<text x="64" y="253" class="tick">soc</text>
</g></g>
</svg>